G04 ================== begin FILE IDENTIFICATION RECORD ==================*
G04 Layout Name:  C:/Users/user/Desktop/vscode_orcad/workspace/cad1/allegro/CAD1.brd*
G04 Film Name:    SilkT*
G04 File Format:  Gerber RS274X*
G04 File Origin:  Cadence Allegro 17.2-P019*
G04 Origin Date:  Tue Jul 30 15:45:53 2019*
G04 *
G04 Layer:  REF DES/SILKSCREEN_TOP*
G04 Layer:  PACKAGE GEOMETRY/SILKSCREEN_TOP*
G04 Layer:  BOARD GEOMETRY/SILKSCREEN_TOP*
G04 *
G04 Offset:    (0.000 0.000)*
G04 Mirror:    No*
G04 Mode:      Positive*
G04 Rotation:  0*
G04 FullContactRelief:  No*
G04 UndefLineWidth:     0.200*
G04 ================== end FILE IDENTIFICATION RECORD ====================*
%FSLAX25Y25*MOIN*%
%IR0*IPPOS*OFA0.00000B0.00000*MIA0B0*SFA1.00000B1.00000*%
%ADD10C,.015748*%
%ADD11C,.007992*%
%ADD12C,.007874*%
G75*
%LPD*%
G75*
G54D10*
G01X152193Y17500D02*
X148256D01*
Y33248D01*
X152193D01*
G01X150618Y25638D02*
X148256D01*
G01X156728Y17500D02*
Y33248D01*
G01X161756Y24587D02*
X164906D01*
X164610Y26425D01*
X164118Y27472D01*
X163429Y28000D01*
X162740Y27736D01*
X162150Y26949D01*
X161756Y25110D01*
X161559Y23535D01*
Y21961D01*
X161756Y20386D01*
X162248Y18811D01*
X162839Y17764D01*
X163528Y17500D01*
X164217Y18024D01*
X164906Y19598D01*
G01X171311Y26685D02*
X170622Y27736D01*
X170031Y28000D01*
X169244Y27472D01*
X168654Y26425D01*
X168260Y24587D01*
X168161Y22748D01*
X168260Y20913D01*
X168654Y19339D01*
X169244Y18024D01*
X170031Y17500D01*
X170720Y18024D01*
X171311Y19075D01*
G01X176240Y33248D02*
Y17500D01*
G01X174862Y28000D02*
X177618D01*
G01X181366Y17500D02*
Y28000D01*
G01Y25898D02*
X181858Y26949D01*
X182350Y27736D01*
X183039Y28000D01*
X183531Y27736D01*
X184122Y26949D01*
G01X189248Y17500D02*
X188657Y17764D01*
X188067Y18811D01*
X187673Y20650D01*
X187476Y22748D01*
X187673Y24850D01*
X188067Y26685D01*
X188657Y27736D01*
X189248Y28000D01*
X189839Y27736D01*
X190429Y26685D01*
X190823Y24850D01*
X190921Y22748D01*
X190823Y20650D01*
X190429Y18811D01*
X189839Y17764D01*
X189248Y17500D01*
G01X194079D02*
Y28000D01*
G01Y25374D02*
X194472Y26685D01*
X195063Y27736D01*
X195850Y28000D01*
X196539Y27736D01*
X197130Y26685D01*
X197425Y24850D01*
Y17500D01*
G01X202256Y28000D02*
Y17500D01*
G01Y32197D02*
X202059Y32461D01*
Y32984D01*
X202256Y33248D01*
X202453Y32984D01*
Y32461D01*
X202256Y32197D01*
G01X210335Y26685D02*
X209646Y27736D01*
X209055Y28000D01*
X208268Y27472D01*
X207677Y26425D01*
X207283Y24587D01*
X207185Y22748D01*
X207283Y20913D01*
X207677Y19339D01*
X208268Y18024D01*
X209055Y17500D01*
X209744Y18024D01*
X210335Y19075D01*
G01X223933Y31937D02*
X223343Y32724D01*
X222654Y33248D01*
X221866D01*
X220980Y32461D01*
X220291Y31150D01*
X219799Y29575D01*
X219406Y26949D01*
X219307Y24587D01*
X219504Y22224D01*
X219799Y20650D01*
X220390Y19075D01*
X221079Y18024D01*
X221768Y17500D01*
X222457D01*
X223146Y18024D01*
X223736Y18811D01*
X224228Y19862D01*
G01X225811Y17500D02*
X228272Y33248D01*
X230732Y17500D01*
G01X229846Y23012D02*
X226697D01*
G01X232610Y17500D02*
Y33248D01*
X234579D01*
X235366Y32461D01*
X235957Y31409D01*
X236449Y29835D01*
X236843Y28000D01*
X236941Y25374D01*
X236843Y22748D01*
X236449Y20913D01*
X235957Y19339D01*
X235366Y18287D01*
X234579Y17500D01*
X232610D01*
G01X149252Y237500D02*
Y253248D01*
X151614D01*
X152402Y252461D01*
X152992Y250622D01*
X153189Y248524D01*
X152992Y246425D01*
X152500Y244850D01*
X151614Y244063D01*
X149252D01*
G01X155559Y253248D02*
Y241961D01*
X155953Y239598D01*
X156740Y238024D01*
X157724Y237500D01*
X158709Y238024D01*
X159496Y239598D01*
X159890Y241961D01*
Y253248D01*
G01X162260D02*
Y237500D01*
X166197D01*
G01X168665Y239598D02*
X169453Y238287D01*
X170339Y237500D01*
X171126D01*
X171913Y238287D01*
X172504Y239598D01*
X172799Y241437D01*
X172602Y243276D01*
X172110Y244850D01*
X171224Y245898D01*
X170043Y246425D01*
X169354Y247472D01*
X169059Y249311D01*
X169256Y251150D01*
X169748Y252461D01*
X170437Y253248D01*
X171126D01*
X171815Y252724D01*
X172406Y251409D01*
G01X179205Y237500D02*
X175268D01*
Y253248D01*
X179205D01*
G01X177630Y245638D02*
X175268D01*
G01X187685Y237500D02*
Y253248D01*
X190244Y240126D01*
X192803Y253248D01*
Y237500D01*
G01X196748D02*
X195961Y237764D01*
X195272Y238811D01*
X194681Y240386D01*
X194287Y242224D01*
X194091Y244323D01*
Y246425D01*
X194287Y248524D01*
X194681Y250362D01*
X195272Y251937D01*
X195961Y252984D01*
X196748Y253248D01*
X197535Y252984D01*
X198224Y251937D01*
X198815Y250362D01*
X199209Y248524D01*
X199406Y246425D01*
Y244323D01*
X199209Y242224D01*
X198815Y240386D01*
X198224Y238811D01*
X197535Y237764D01*
X196748Y237500D01*
G01X201087D02*
Y253248D01*
X203055D01*
X203843Y252461D01*
X204433Y251409D01*
X204925Y249835D01*
X205319Y248000D01*
X205417Y245374D01*
X205319Y242748D01*
X204925Y240913D01*
X204433Y239339D01*
X203843Y238287D01*
X203055Y237500D01*
X201087D01*
G01X207591Y253248D02*
Y241961D01*
X207984Y239598D01*
X208772Y238024D01*
X209756Y237500D01*
X210740Y238024D01*
X211528Y239598D01*
X211921Y241961D01*
Y253248D01*
G01X214291D02*
Y237500D01*
X218228D01*
G01X220303D02*
X222764Y253248D01*
X225224Y237500D01*
G01X224339Y243012D02*
X221189D01*
G01X229268Y253248D02*
Y237500D01*
G01X227004Y253248D02*
X231531D01*
G01X234591D02*
X236953D01*
G01X235772D02*
Y237500D01*
G01X234591D02*
X236953D01*
G01X242276D02*
X241488Y237764D01*
X240799Y238811D01*
X240209Y240386D01*
X239815Y242224D01*
X239618Y244323D01*
Y246425D01*
X239815Y248524D01*
X240209Y250362D01*
X240799Y251937D01*
X241488Y252984D01*
X242276Y253248D01*
X243063Y252984D01*
X243752Y251937D01*
X244343Y250362D01*
X244736Y248524D01*
X244933Y246425D01*
Y244323D01*
X244736Y242224D01*
X244343Y240386D01*
X243752Y238811D01*
X243063Y237764D01*
X242276Y237500D01*
G01X246516D02*
Y253248D01*
X251043Y237500D01*
Y253248D01*
G54D11*
G01X133921Y70531D02*
X130000Y69748D01*
G01D02*
X126079Y70531D01*
G01D02*
X122748Y72748D01*
G01D02*
X120531Y76079D01*
G01D02*
X119748Y80000D01*
G01D02*
X120531Y83921D01*
G01D02*
X122748Y87252D01*
G01D02*
X123500Y87748D01*
G01D02*
X136500D01*
G01X139469Y76079D02*
X137252Y72748D01*
G01D02*
X133921Y70531D01*
G01X136500Y87748D02*
X137252Y87252D01*
G01D02*
X139469Y83921D01*
G01D02*
X140248Y80000D01*
G01D02*
X139469Y76079D01*
G54D12*
G01X14685Y123110D02*
X24685D01*
Y83110D01*
X14685D01*
Y123110D01*
G01X26886Y122626D02*
X26386Y122311D01*
X26051Y121929D01*
X25886Y121488D01*
X26051Y120980D01*
X26386Y120598D01*
X26886Y120220D01*
X27551Y120094D01*
X30886D01*
G01X25886Y116264D02*
X30886D01*
X29886Y117024D01*
G01X25886D02*
Y115504D01*
G01X37500Y161500D02*
Y167500D01*
X40000Y170000D01*
Y175000D01*
X37500Y177500D01*
Y183500D01*
X77500D01*
Y161500D01*
X37500D01*
G01X14685Y182165D02*
X24685D01*
Y152165D01*
X14685D01*
Y182165D01*
G01X26205Y181484D02*
X25898Y181291D01*
X25689Y181063D01*
X25587Y180791D01*
X25689Y180488D01*
X25898Y180256D01*
X26205Y180028D01*
X26618Y179949D01*
X28685D01*
G01X28169Y178346D02*
X28480Y178118D01*
X28634Y177846D01*
X28685Y177543D01*
X28583Y177157D01*
X28323Y176890D01*
X28012Y176815D01*
X27705Y176850D01*
X27445Y177004D01*
X26929Y177772D01*
X26567Y178118D01*
X26051Y178346D01*
X25587Y178421D01*
Y176815D01*
G01X57500Y71500D02*
Y77500D01*
X60000Y80000D01*
Y85000D01*
X57500Y87500D01*
Y93500D01*
X97500D01*
Y71500D01*
X57500D01*
G01X63201Y103157D02*
X66783D01*
X67535Y103409D01*
X68035Y103917D01*
X68201Y104547D01*
X68035Y105181D01*
X67535Y105689D01*
X66783Y105941D01*
X63201D01*
G01X68201Y109646D02*
X63201D01*
X64201Y108886D01*
G01X68201D02*
Y110406D01*
G01X68500Y117500D02*
X96500D01*
Y107500D01*
X68500D01*
Y117500D01*
G01X43201Y193157D02*
X46783D01*
X47535Y193409D01*
X48035Y193917D01*
X48201Y194547D01*
X48035Y195181D01*
X47535Y195689D01*
X46783Y195941D01*
X43201D01*
G01X47201Y198256D02*
X47783Y198634D01*
X48118Y199142D01*
X48201Y199713D01*
X48118Y200217D01*
X47701Y200724D01*
X47201Y201039D01*
X46701Y201102D01*
X46118Y200976D01*
X45701Y200535D01*
X45535Y200091D01*
Y199520D01*
G01Y200091D02*
X45283Y200472D01*
X44866Y200787D01*
X44366Y200913D01*
X43866Y200787D01*
X43453Y200472D01*
X43201Y199902D01*
X43283Y199331D01*
X43618Y198760D01*
G01X67500Y210000D02*
G03I-10000J0D01*
G01X58500Y240000D02*
X86500D01*
Y230000D01*
X58500D01*
Y240000D01*
G01X71083Y231157D02*
X71335Y231535D01*
X71500Y231980D01*
Y232484D01*
X71248Y233055D01*
X70835Y233500D01*
X70335Y233815D01*
X69500Y234071D01*
X68748Y234134D01*
X68000Y234004D01*
X67500Y233815D01*
X67000Y233437D01*
X66665Y232992D01*
X66500Y232551D01*
Y232106D01*
X66665Y231661D01*
X66917Y231283D01*
X67248Y230965D01*
G01X67500Y228843D02*
X66917Y228465D01*
X66583Y227957D01*
X66500Y227386D01*
X66583Y226882D01*
X67000Y226374D01*
X67500Y226059D01*
X68000Y225996D01*
X68583Y226122D01*
X69000Y226563D01*
X69165Y227008D01*
Y227579D01*
G01Y227008D02*
X69417Y226626D01*
X69835Y226311D01*
X70335Y226185D01*
X70835Y226311D01*
X71248Y226626D01*
X71500Y227197D01*
X71417Y227768D01*
X71083Y228339D01*
G01X112500Y50000D02*
G03I-10000J0D01*
G01X87000Y106618D02*
X90098D01*
Y105657D01*
X89945Y105350D01*
X89736Y105161D01*
X89323Y105083D01*
X88909Y105161D01*
X88654Y105390D01*
X88496Y105657D01*
Y106618D01*
G01Y105657D02*
X87000Y105083D01*
G01X89583Y103480D02*
X89894Y103252D01*
X90047Y102980D01*
X90098Y102677D01*
X89996Y102291D01*
X89736Y102024D01*
X89425Y101949D01*
X89118Y101984D01*
X88858Y102138D01*
X88343Y102906D01*
X87980Y103252D01*
X87465Y103480D01*
X87000Y103555D01*
Y101949D01*
G01X97000Y209118D02*
X100098D01*
Y208157D01*
X99945Y207850D01*
X99736Y207661D01*
X99323Y207583D01*
X98909Y207661D01*
X98654Y207890D01*
X98496Y208157D01*
Y209118D01*
G01Y208157D02*
X97000Y207583D01*
G01Y205327D02*
X97673Y205252D01*
X98240Y205138D01*
X98756Y204984D01*
X99323Y204791D01*
X100098Y204484D01*
Y206020D01*
G01X78500Y220000D02*
X106500D01*
Y210000D01*
X78500D01*
Y220000D01*
G01X77000Y229118D02*
X80098D01*
Y228157D01*
X79945Y227850D01*
X79736Y227661D01*
X79323Y227583D01*
X78909Y227661D01*
X78654Y227890D01*
X78496Y228157D01*
Y229118D01*
G01Y228157D02*
X77000Y227583D01*
G01Y225252D02*
X77051Y224984D01*
X77205Y224677D01*
X77465Y224484D01*
X77827Y224409D01*
X78189Y224484D01*
X78496Y224717D01*
X78654Y225059D01*
Y225445D01*
X78756Y225673D01*
X79016Y225866D01*
X79374Y225941D01*
X79736Y225827D01*
X79996Y225559D01*
X80098Y225252D01*
X79996Y224945D01*
X79736Y224677D01*
X79374Y224563D01*
X79016Y224638D01*
X78756Y224831D01*
X78654Y225059D01*
Y225445D01*
X78496Y225787D01*
X78189Y226020D01*
X77827Y226094D01*
X77465Y226020D01*
X77205Y225827D01*
X77051Y225520D01*
X77000Y225252D01*
G01X123657Y36417D02*
X124035Y36165D01*
X124480Y36000D01*
X124984D01*
X125555Y36252D01*
X126000Y36665D01*
X126315Y37165D01*
X126571Y38000D01*
X126634Y38752D01*
X126504Y39500D01*
X126315Y40000D01*
X125937Y40500D01*
X125492Y40835D01*
X125051Y41000D01*
X124606D01*
X124161Y40835D01*
X123783Y40583D01*
X123465Y40252D01*
G01X121154Y36835D02*
X120776Y36335D01*
X120331Y36083D01*
X119823Y36000D01*
X119189Y36165D01*
X118748Y36583D01*
X118622Y37083D01*
X118685Y37583D01*
X118937Y38000D01*
X120205Y38835D01*
X120776Y39417D01*
X121154Y40252D01*
X121280Y41000D01*
X118622D01*
G01X140000Y50000D02*
G03I-10000J0D01*
G01X108843Y63583D02*
X108465Y63835D01*
X108020Y64000D01*
X107516D01*
X106945Y63748D01*
X106500Y63335D01*
X106185Y62835D01*
X105929Y62000D01*
X105866Y61248D01*
X105996Y60500D01*
X106185Y60000D01*
X106563Y59500D01*
X107008Y59165D01*
X107449Y59000D01*
X107894D01*
X108339Y59165D01*
X108717Y59417D01*
X109035Y59748D01*
G01X112547Y59000D02*
Y64000D01*
X111787Y63000D01*
G01Y59000D02*
X113307D01*
G01X138421Y96650D02*
X139169Y96524D01*
X139819Y96024D01*
X140382Y95276D01*
X140756Y94402D01*
X140941Y93402D01*
Y92398D01*
X140756Y91398D01*
X140382Y90524D01*
X139819Y89776D01*
X139169Y89276D01*
X138421Y89150D01*
X137673Y89276D01*
X137024Y89776D01*
X136461Y90524D01*
X136087Y91398D01*
X135902Y92398D01*
Y93402D01*
X136087Y94402D01*
X136461Y95276D01*
X137024Y96024D01*
X137673Y96524D01*
X138421Y96650D01*
G01X137673Y94650D02*
X136555Y96650D01*
G01X130921D02*
Y89150D01*
X132039Y90650D01*
G01Y96650D02*
X129803D01*
G01X117500Y97500D02*
Y122500D01*
X137500D01*
Y97500D01*
X117500D01*
G01X115114Y128701D02*
X116697Y123701D01*
X118283Y128701D01*
G01X120531Y123701D02*
Y128701D01*
X122114D01*
X122622Y128449D01*
X122937Y128118D01*
X123063Y127449D01*
X122937Y126783D01*
X122559Y126366D01*
X122114Y126118D01*
X120531D01*
G01X122114D02*
X123063Y123701D01*
G01X126894D02*
Y128701D01*
X126134Y127701D01*
G01Y123701D02*
X127654D01*
G01X132000Y131618D02*
X135098D01*
Y130657D01*
X134945Y130350D01*
X134736Y130161D01*
X134323Y130083D01*
X133909Y130161D01*
X133654Y130390D01*
X133496Y130657D01*
Y131618D01*
G01Y130657D02*
X132000Y130083D01*
G01Y127291D02*
X135098D01*
X132878Y128709D01*
Y126795D01*
G01X113500Y142500D02*
X141500D01*
Y132500D01*
X113500D01*
Y142500D01*
G01X122500Y161500D02*
Y167500D01*
X125000Y170000D01*
Y175000D01*
X122500Y177500D01*
Y183500D01*
X162500D01*
Y161500D01*
X122500D01*
G01X128201Y193157D02*
X131783D01*
X132535Y193409D01*
X133035Y193917D01*
X133201Y194547D01*
X133035Y195181D01*
X132535Y195689D01*
X131783Y195941D01*
X128201D01*
G01X133201Y200409D02*
X128201D01*
X131783Y198063D01*
Y201232D01*
G01X184500Y91618D02*
X187598D01*
Y90657D01*
X187445Y90350D01*
X187236Y90161D01*
X186823Y90083D01*
X186409Y90161D01*
X186154Y90390D01*
X185996Y90657D01*
Y91618D01*
G01Y90657D02*
X184500Y90083D01*
G01X185118Y88594D02*
X184760Y88366D01*
X184551Y88059D01*
X184500Y87713D01*
X184551Y87406D01*
X184811Y87102D01*
X185118Y86909D01*
X185429Y86870D01*
X185791Y86949D01*
X186047Y87217D01*
X186154Y87484D01*
Y87827D01*
G01Y87484D02*
X186307Y87252D01*
X186567Y87063D01*
X186874Y86984D01*
X187185Y87063D01*
X187445Y87252D01*
X187598Y87598D01*
X187547Y87945D01*
X187339Y88287D01*
G01X166000Y102500D02*
X194000D01*
Y92500D01*
X166000D01*
Y102500D01*
G01X175500Y128382D02*
X172402D01*
Y129343D01*
X172555Y129650D01*
X172764Y129839D01*
X173177Y129917D01*
X173591Y129839D01*
X173846Y129610D01*
X174004Y129343D01*
Y128382D01*
G01Y129343D02*
X175500Y129917D01*
G01X175035Y131406D02*
X175295Y131634D01*
X175449Y131902D01*
X175500Y132248D01*
X175398Y132594D01*
X175189Y132862D01*
X174827Y133051D01*
X174417Y133091D01*
X174004Y133016D01*
X173744Y132823D01*
X173539Y132555D01*
X173484Y132287D01*
X173539Y132020D01*
X173744Y131673D01*
X172402Y131787D01*
Y132823D01*
G01X194000Y117500D02*
X166000D01*
Y127500D01*
X194000D01*
Y117500D01*
G01X175500Y220882D02*
X172402D01*
Y221843D01*
X172555Y222150D01*
X172764Y222339D01*
X173177Y222417D01*
X173591Y222339D01*
X173846Y222110D01*
X174004Y221843D01*
Y220882D01*
G01Y221843D02*
X175500Y222417D01*
G01X174209Y224020D02*
X173846Y224287D01*
X173642Y224520D01*
X173539Y224823D01*
X173642Y225094D01*
X173846Y225283D01*
X174157Y225437D01*
X174520Y225476D01*
X174827Y225437D01*
X175138Y225283D01*
X175398Y225055D01*
X175500Y224787D01*
X175398Y224480D01*
X175087Y224213D01*
X174622Y224059D01*
X174106Y224020D01*
X173433Y224098D01*
X173075Y224213D01*
X172713Y224402D01*
X172453Y224673D01*
X172402Y224941D01*
X172504Y225209D01*
X172764Y225398D01*
G01X194000Y210000D02*
X166000D01*
Y220000D01*
X194000D01*
Y210000D01*
G01X215000Y161500D02*
Y167500D01*
X217500Y170000D01*
Y175000D01*
X215000Y177500D01*
Y183500D01*
X255000D01*
Y161500D01*
X215000D01*
G01X220701Y193157D02*
X224283D01*
X225035Y193409D01*
X225535Y193917D01*
X225701Y194547D01*
X225535Y195181D01*
X225035Y195689D01*
X224283Y195941D01*
X220701D01*
G01X224953Y198256D02*
X225366Y198634D01*
X225618Y199079D01*
X225701Y199646D01*
X225535Y200217D01*
X225201Y200661D01*
X224618Y200976D01*
X223953Y201039D01*
X223283Y200913D01*
X222866Y200598D01*
X222535Y200154D01*
X222453Y199713D01*
X222535Y199268D01*
X222866Y198697D01*
X220701Y198886D01*
Y200598D01*
G01X226500Y95000D02*
X232500D01*
X235000Y92500D01*
X240000D01*
X242500Y95000D01*
X248500D01*
Y55000D01*
X226500D01*
Y95000D01*
G01X238500Y127500D02*
X266500D01*
Y117500D01*
X238500D01*
Y127500D01*
G01X258157Y89299D02*
Y85717D01*
X258409Y84965D01*
X258917Y84465D01*
X259547Y84299D01*
X260181Y84465D01*
X260689Y84965D01*
X260941Y85717D01*
Y89299D01*
G01X263445Y88465D02*
X263823Y88965D01*
X264268Y89217D01*
X264776Y89299D01*
X265409Y89134D01*
X265850Y88717D01*
X265976Y88217D01*
X265913Y87717D01*
X265661Y87299D01*
X264394Y86465D01*
X263823Y85882D01*
X263445Y85047D01*
X263319Y84299D01*
X265976D01*
G01X257000Y116618D02*
X260098D01*
Y115657D01*
X259945Y115350D01*
X259736Y115161D01*
X259323Y115083D01*
X258909Y115161D01*
X258654Y115390D01*
X258496Y115657D01*
Y116618D01*
G01Y115657D02*
X257000Y115083D01*
G01Y112752D02*
X260098D01*
X259480Y113213D01*
G01X257000D02*
Y112291D01*
G01X283799Y105114D02*
X288799Y106697D01*
X283799Y108283D01*
G01X288799Y110531D02*
X283799D01*
Y112114D01*
X284051Y112622D01*
X284382Y112937D01*
X285051Y113063D01*
X285717Y112937D01*
X286134Y112559D01*
X286382Y112114D01*
Y110531D01*
G01Y112114D02*
X288799Y113063D01*
G01X284634Y115693D02*
X284134Y116071D01*
X283882Y116516D01*
X283799Y117024D01*
X283965Y117657D01*
X284382Y118098D01*
X284882Y118224D01*
X285382Y118161D01*
X285799Y117909D01*
X286634Y116642D01*
X287217Y116071D01*
X288051Y115693D01*
X288799Y115567D01*
Y118224D01*
G01X315000Y107500D02*
X290000D01*
Y127500D01*
X315000D01*
Y107500D01*
G01X299299Y182689D02*
X301799D01*
Y182157D01*
X301673Y181941D01*
X301508Y181783D01*
X301256Y181650D01*
X300965Y181543D01*
X300547Y181516D01*
X300134Y181543D01*
X299843Y181650D01*
X299591Y181783D01*
X299425Y181941D01*
X299299Y182157D01*
Y182689D01*
G01X301382Y180413D02*
X301634Y180252D01*
X301756Y180067D01*
X301799Y179850D01*
X301717Y179587D01*
X301508Y179398D01*
X301256Y179346D01*
X301008Y179374D01*
X300799Y179480D01*
X300382Y180012D01*
X300091Y180252D01*
X299673Y180413D01*
X299299Y180465D01*
Y179346D01*
G01X287500Y167500D02*
Y186500D01*
X297500D01*
Y167500D01*
X287500D01*
G01Y171000D02*
X297500D01*
G01X287500Y170500D02*
X297500D01*
G01X343382Y182000D02*
Y185098D01*
X344343D01*
X344650Y184945D01*
X344839Y184736D01*
X344917Y184323D01*
X344839Y183909D01*
X344610Y183654D01*
X344343Y183496D01*
X343382D01*
G01X344343D02*
X344917Y182000D01*
G01X346598Y182362D02*
X346866Y182102D01*
X347173Y182000D01*
X347476Y182102D01*
X347748Y182413D01*
X347937Y182878D01*
X348016Y183343D01*
Y183909D01*
X347937Y184374D01*
X347748Y184787D01*
X347516Y184996D01*
X347248Y185098D01*
X346941Y184996D01*
X346713Y184787D01*
X346559Y184480D01*
X346480Y184067D01*
X346559Y183705D01*
X346748Y183343D01*
X346980Y183138D01*
X347248Y183083D01*
X347555Y183189D01*
X347783Y183445D01*
X348016Y183909D01*
G01X332500Y163500D02*
Y191500D01*
X342500D01*
Y163500D01*
X332500D01*
G01X367898Y112992D02*
X368205Y113185D01*
X368413Y113413D01*
X368516Y113685D01*
X368413Y113988D01*
X368205Y114220D01*
X367898Y114449D01*
X367484Y114528D01*
X365417D01*
G01X367898Y116016D02*
X368256Y116244D01*
X368465Y116551D01*
X368516Y116898D01*
X368465Y117205D01*
X368205Y117508D01*
X367898Y117701D01*
X367587Y117740D01*
X367224Y117661D01*
X366969Y117394D01*
X366862Y117126D01*
Y116783D01*
G01Y117126D02*
X366709Y117358D01*
X366449Y117547D01*
X366142Y117626D01*
X365831Y117547D01*
X365571Y117358D01*
X365417Y117012D01*
X365469Y116665D01*
X365677Y116323D01*
G01X379016Y113110D02*
X369016D01*
Y133110D01*
X379016D01*
Y113110D01*
M02*
