G04 ================== begin FILE IDENTIFICATION RECORD ==================*
G04 Layout Name:  C:/Users/user/Desktop/vscode_orcad/workspace/cad1/allegro/CAD1.brd*
G04 Film Name:    skikb*
G04 File Format:  Gerber RS274X*
G04 File Origin:  Cadence Allegro 17.2-P019*
G04 Origin Date:  Tue Jul 30 15:45:53 2019*
G04 *
G04 Layer:  REF DES/SILKSCREEN_BOTTOM*
G04 Layer:  PACKAGE GEOMETRY/SILKSCREEN_TOP*
G04 Layer:  PACKAGE GEOMETRY/SILKSCREEN_BOTTOM*
G04 Layer:  BOARD GEOMETRY/SILKSCREEN_TOP*
G04 Layer:  BOARD GEOMETRY/SILKSCREEN_BOTTOM*
G04 *
G04 Offset:    (0.000 0.000)*
G04 Mirror:    No*
G04 Mode:      Positive*
G04 Rotation:  0*
G04 FullContactRelief:  No*
G04 UndefLineWidth:     0.200*
G04 ================== end FILE IDENTIFICATION RECORD ====================*
%FSLAX25Y25*MOIN*%
%IR0*IPPOS*OFA0.00000B0.00000*MIA0B0*SFA1.00000B1.00000*%
%ADD10C,.015748*%
%ADD11C,.007992*%
%ADD12C,.007874*%
G75*
%LPD*%
G75*
G54D10*
G01X152193Y17500D02*
X148256D01*
Y33248D01*
X152193D01*
G01X150618Y25638D02*
X148256D01*
G01X156728Y17500D02*
Y33248D01*
G01X161756Y24587D02*
X164906D01*
X164610Y26425D01*
X164118Y27472D01*
X163429Y28000D01*
X162740Y27736D01*
X162150Y26949D01*
X161756Y25110D01*
X161559Y23535D01*
Y21961D01*
X161756Y20386D01*
X162248Y18811D01*
X162839Y17764D01*
X163528Y17500D01*
X164217Y18024D01*
X164906Y19598D01*
G01X171311Y26685D02*
X170622Y27736D01*
X170031Y28000D01*
X169244Y27472D01*
X168654Y26425D01*
X168260Y24587D01*
X168161Y22748D01*
X168260Y20913D01*
X168654Y19339D01*
X169244Y18024D01*
X170031Y17500D01*
X170720Y18024D01*
X171311Y19075D01*
G01X176240Y33248D02*
Y17500D01*
G01X174862Y28000D02*
X177618D01*
G01X181366Y17500D02*
Y28000D01*
G01Y25898D02*
X181858Y26949D01*
X182350Y27736D01*
X183039Y28000D01*
X183531Y27736D01*
X184122Y26949D01*
G01X189248Y17500D02*
X188657Y17764D01*
X188067Y18811D01*
X187673Y20650D01*
X187476Y22748D01*
X187673Y24850D01*
X188067Y26685D01*
X188657Y27736D01*
X189248Y28000D01*
X189839Y27736D01*
X190429Y26685D01*
X190823Y24850D01*
X190921Y22748D01*
X190823Y20650D01*
X190429Y18811D01*
X189839Y17764D01*
X189248Y17500D01*
G01X194079D02*
Y28000D01*
G01Y25374D02*
X194472Y26685D01*
X195063Y27736D01*
X195850Y28000D01*
X196539Y27736D01*
X197130Y26685D01*
X197425Y24850D01*
Y17500D01*
G01X202256Y28000D02*
Y17500D01*
G01Y32197D02*
X202059Y32461D01*
Y32984D01*
X202256Y33248D01*
X202453Y32984D01*
Y32461D01*
X202256Y32197D01*
G01X210335Y26685D02*
X209646Y27736D01*
X209055Y28000D01*
X208268Y27472D01*
X207677Y26425D01*
X207283Y24587D01*
X207185Y22748D01*
X207283Y20913D01*
X207677Y19339D01*
X208268Y18024D01*
X209055Y17500D01*
X209744Y18024D01*
X210335Y19075D01*
G01X223933Y31937D02*
X223343Y32724D01*
X222654Y33248D01*
X221866D01*
X220980Y32461D01*
X220291Y31150D01*
X219799Y29575D01*
X219406Y26949D01*
X219307Y24587D01*
X219504Y22224D01*
X219799Y20650D01*
X220390Y19075D01*
X221079Y18024D01*
X221768Y17500D01*
X222457D01*
X223146Y18024D01*
X223736Y18811D01*
X224228Y19862D01*
G01X225811Y17500D02*
X228272Y33248D01*
X230732Y17500D01*
G01X229846Y23012D02*
X226697D01*
G01X232610Y17500D02*
Y33248D01*
X234579D01*
X235366Y32461D01*
X235957Y31409D01*
X236449Y29835D01*
X236843Y28000D01*
X236941Y25374D01*
X236843Y22748D01*
X236449Y20913D01*
X235957Y19339D01*
X235366Y18287D01*
X234579Y17500D01*
X232610D01*
G01X149252Y237500D02*
Y253248D01*
X151614D01*
X152402Y252461D01*
X152992Y250622D01*
X153189Y248524D01*
X152992Y246425D01*
X152500Y244850D01*
X151614Y244063D01*
X149252D01*
G01X155559Y253248D02*
Y241961D01*
X155953Y239598D01*
X156740Y238024D01*
X157724Y237500D01*
X158709Y238024D01*
X159496Y239598D01*
X159890Y241961D01*
Y253248D01*
G01X162260D02*
Y237500D01*
X166197D01*
G01X168665Y239598D02*
X169453Y238287D01*
X170339Y237500D01*
X171126D01*
X171913Y238287D01*
X172504Y239598D01*
X172799Y241437D01*
X172602Y243276D01*
X172110Y244850D01*
X171224Y245898D01*
X170043Y246425D01*
X169354Y247472D01*
X169059Y249311D01*
X169256Y251150D01*
X169748Y252461D01*
X170437Y253248D01*
X171126D01*
X171815Y252724D01*
X172406Y251409D01*
G01X179205Y237500D02*
X175268D01*
Y253248D01*
X179205D01*
G01X177630Y245638D02*
X175268D01*
G01X187685Y237500D02*
Y253248D01*
X190244Y240126D01*
X192803Y253248D01*
Y237500D01*
G01X196748D02*
X195961Y237764D01*
X195272Y238811D01*
X194681Y240386D01*
X194287Y242224D01*
X194091Y244323D01*
Y246425D01*
X194287Y248524D01*
X194681Y250362D01*
X195272Y251937D01*
X195961Y252984D01*
X196748Y253248D01*
X197535Y252984D01*
X198224Y251937D01*
X198815Y250362D01*
X199209Y248524D01*
X199406Y246425D01*
Y244323D01*
X199209Y242224D01*
X198815Y240386D01*
X198224Y238811D01*
X197535Y237764D01*
X196748Y237500D01*
G01X201087D02*
Y253248D01*
X203055D01*
X203843Y252461D01*
X204433Y251409D01*
X204925Y249835D01*
X205319Y248000D01*
X205417Y245374D01*
X205319Y242748D01*
X204925Y240913D01*
X204433Y239339D01*
X203843Y238287D01*
X203055Y237500D01*
X201087D01*
G01X207591Y253248D02*
Y241961D01*
X207984Y239598D01*
X208772Y238024D01*
X209756Y237500D01*
X210740Y238024D01*
X211528Y239598D01*
X211921Y241961D01*
Y253248D01*
G01X214291D02*
Y237500D01*
X218228D01*
G01X220303D02*
X222764Y253248D01*
X225224Y237500D01*
G01X224339Y243012D02*
X221189D01*
G01X229268Y253248D02*
Y237500D01*
G01X227004Y253248D02*
X231531D01*
G01X234591D02*
X236953D01*
G01X235772D02*
Y237500D01*
G01X234591D02*
X236953D01*
G01X242276D02*
X241488Y237764D01*
X240799Y238811D01*
X240209Y240386D01*
X239815Y242224D01*
X239618Y244323D01*
Y246425D01*
X239815Y248524D01*
X240209Y250362D01*
X240799Y251937D01*
X241488Y252984D01*
X242276Y253248D01*
X243063Y252984D01*
X243752Y251937D01*
X244343Y250362D01*
X244736Y248524D01*
X244933Y246425D01*
Y244323D01*
X244736Y242224D01*
X244343Y240386D01*
X243752Y238811D01*
X243063Y237764D01*
X242276Y237500D01*
G01X246516D02*
Y253248D01*
X251043Y237500D01*
Y253248D01*
G54D11*
G01X133921Y70531D02*
X130000Y69748D01*
G01D02*
X126079Y70531D01*
G01D02*
X122748Y72748D01*
G01D02*
X120531Y76079D01*
G01D02*
X119748Y80000D01*
G01D02*
X120531Y83921D01*
G01D02*
X122748Y87252D01*
G01D02*
X123500Y87748D01*
G01D02*
X136500D01*
G01X139469Y76079D02*
X137252Y72748D01*
G01D02*
X133921Y70531D01*
G01X136500Y87748D02*
X137252Y87252D01*
G01D02*
X139469Y83921D01*
G01D02*
X140248Y80000D01*
G01D02*
X139469Y76079D01*
G54D12*
G01X14685Y123110D02*
X24685D01*
Y83110D01*
X14685D01*
Y123110D01*
G01X37500Y161500D02*
Y167500D01*
X40000Y170000D01*
Y175000D01*
X37500Y177500D01*
Y183500D01*
X77500D01*
Y161500D01*
X37500D01*
G01X14685Y182165D02*
X24685D01*
Y152165D01*
X14685D01*
Y182165D01*
G01X57500Y71500D02*
Y77500D01*
X60000Y80000D01*
Y85000D01*
X57500Y87500D01*
Y93500D01*
X97500D01*
Y71500D01*
X57500D01*
G01X68500Y117500D02*
X96500D01*
Y107500D01*
X68500D01*
Y117500D01*
G01X67500Y210000D02*
G03I-10000J0D01*
G01X58500Y240000D02*
X86500D01*
Y230000D01*
X58500D01*
Y240000D01*
G01X112500Y50000D02*
G03I-10000J0D01*
G01X78500Y220000D02*
X106500D01*
Y210000D01*
X78500D01*
Y220000D01*
G01X140000Y50000D02*
G03I-10000J0D01*
G01X117500Y97500D02*
Y122500D01*
X137500D01*
Y97500D01*
X117500D01*
G01X113500Y142500D02*
X141500D01*
Y132500D01*
X113500D01*
Y142500D01*
G01X122500Y161500D02*
Y167500D01*
X125000Y170000D01*
Y175000D01*
X122500Y177500D01*
Y183500D01*
X162500D01*
Y161500D01*
X122500D01*
G01X166000Y102500D02*
X194000D01*
Y92500D01*
X166000D01*
Y102500D01*
G01X194000Y117500D02*
X166000D01*
Y127500D01*
X194000D01*
Y117500D01*
G01Y210000D02*
X166000D01*
Y220000D01*
X194000D01*
Y210000D01*
G01X215000Y161500D02*
Y167500D01*
X217500Y170000D01*
Y175000D01*
X215000Y177500D01*
Y183500D01*
X255000D01*
Y161500D01*
X215000D01*
G01X226500Y95000D02*
X232500D01*
X235000Y92500D01*
X240000D01*
X242500Y95000D01*
X248500D01*
Y55000D01*
X226500D01*
Y95000D01*
G01X238500Y127500D02*
X266500D01*
Y117500D01*
X238500D01*
Y127500D01*
G01X315000Y107500D02*
X290000D01*
Y127500D01*
X315000D01*
Y107500D01*
G01X287500Y167500D02*
Y186500D01*
X297500D01*
Y167500D01*
X287500D01*
G01Y171000D02*
X297500D01*
G01X287500Y170500D02*
X297500D01*
G01X332500Y163500D02*
Y191500D01*
X342500D01*
Y163500D01*
X332500D01*
G01X379016Y113110D02*
X369016D01*
Y133110D01*
X379016D01*
Y113110D01*
M02*
