G04 ================== begin FILE IDENTIFICATION RECORD ==================*
G04 Layout Name:  C:/Users/user/Desktop/vscode_orcad/workspace/cad1/allegro/CAD1.brd*
G04 Film Name:    SolderB*
G04 File Format:  Gerber RS274X*
G04 File Origin:  Cadence Allegro 17.2-P019*
G04 Origin Date:  Tue Jul 30 15:45:53 2019*
G04 *
G04 Layer:  VIA CLASS/SOLDERMASK_BOTTOM*
G04 Layer:  PIN/SOLDERMASK_BOTTOM*
G04 Layer:  PACKAGE GEOMETRY/SOLDERMASK_BOTTOM*
G04 Layer:  BOARD GEOMETRY/SOLDERMASK_BOTTOM*
G04 *
G04 Offset:    (0.000 0.000)*
G04 Mirror:    No*
G04 Mode:      Positive*
G04 Rotation:  0*
G04 FullContactRelief:  No*
G04 UndefLineWidth:     0.000*
G04 ================== end FILE IDENTIFICATION RECORD ====================*
%FSLAX25Y25*MOIN*%
%IR0*IPPOS*OFA0.00000B0.00000*MIA0B0*SFA1.00000B1.00000*%
%ADD13C,.08*%
%ADD14C,.057992*%
%ADD11C,.075*%
%ADD10C,.145*%
%ADD12R,.075X.075*%
%LPD*%
G75*
G54D10*
X18898Y18898D03*
Y255118D03*
X373228Y23622D03*
X372500Y255000D03*
G54D11*
X19685Y88110D03*
Y98110D03*
Y108110D03*
Y118110D03*
Y157165D03*
Y167165D03*
X42500Y187500D03*
X19685Y177165D03*
X72500Y67500D03*
Y97500D03*
X62500D03*
X72500Y157500D03*
X62500D03*
X52500D03*
X72500Y187500D03*
X62500D03*
X52500D03*
X62500Y210000D03*
X52500D03*
X102500Y45000D03*
X92500Y67500D03*
X82500D03*
X102500Y55000D03*
X92500Y97500D03*
X82500D03*
X130000Y45000D03*
Y55000D03*
X132500Y100000D03*
X122500Y110000D03*
X132500Y120000D03*
X137500Y157500D03*
Y187500D03*
X127500D03*
X157500Y157500D03*
X147500D03*
X157500Y187500D03*
X147500D03*
X222500Y60000D03*
Y70000D03*
Y80000D03*
X220000Y187500D03*
X252500Y60000D03*
Y70000D03*
Y80000D03*
Y90000D03*
X250000Y157500D03*
X240000D03*
X230000D03*
X250000Y187500D03*
X240000D03*
X230000D03*
X312500Y122500D03*
X302500Y112500D03*
X292500Y122500D03*
Y196500D03*
X374016Y128110D03*
Y118110D03*
G54D12*
X42500Y157500D03*
X62500Y67500D03*
X127500Y157500D03*
X222500Y90000D03*
X220000Y157500D03*
X292500D03*
G54D13*
X62500Y112500D03*
X72500Y215000D03*
X52500Y235000D03*
X102500Y112500D03*
X107500Y137500D03*
X92500Y235000D03*
X112500Y215000D03*
X160000Y97500D03*
X147500Y137500D03*
X160000Y122500D03*
Y215000D03*
X200000Y97500D03*
Y122500D03*
Y215000D03*
X232500Y122500D03*
X272500D03*
X337500Y157500D03*
Y197500D03*
G54D14*
X130000Y75000D03*
X135000Y80000D03*
X125000D03*
M02*
