G04 ================== begin FILE IDENTIFICATION RECORD ==================*
G04 Layout Name:  C:/Users/user/Desktop/vscode_orcad/workspace/cad1/allegro/CAD1.brd*
G04 Film Name:    TOP*
G04 File Format:  Gerber RS274X*
G04 File Origin:  Cadence Allegro 17.2-P019*
G04 Origin Date:  Tue Jul 30 15:45:53 2019*
G04 *
G04 Layer:  ETCH/TOP*
G04 Layer:  PIN/TOP*
G04 Layer:  VIA CLASS/TOP*
G04 *
G04 Offset:    (0.000 0.000)*
G04 Mirror:    No*
G04 Mode:      Positive*
G04 Rotation:  0*
G04 FullContactRelief:  No*
G04 UndefLineWidth:     0.000*
G04 ================== end FILE IDENTIFICATION RECORD ====================*
%FSLAX25Y25*MOIN*%
%IR0*IPPOS*OFA0.00000B0.00000*MIA0B0*SFA1.00000B1.00000*%
%ADD11C,.06*%
%ADD13C,.065*%
%ADD14C,.057992*%
%ADD12R,.06X.06*%
%ADD10C,.025*%
%ADD15C,.03937*%
%ADD16C,.019685*%
G75*
%LPD*%
G75*
G54D10*
X18898Y18898D03*
Y255118D03*
X373228Y23622D03*
X372500Y255000D03*
G54D11*
X19685Y88110D03*
Y98110D03*
Y108110D03*
Y118110D03*
Y157165D03*
Y167165D03*
X42500Y187500D03*
X19685Y177165D03*
X72500Y67500D03*
Y97500D03*
X62500D03*
X72500Y157500D03*
X62500D03*
X52500D03*
X72500Y187500D03*
X62500D03*
X52500D03*
X62500Y210000D03*
X52500D03*
X102500Y45000D03*
X92500Y67500D03*
X82500D03*
X102500Y55000D03*
X92500Y97500D03*
X82500D03*
X130000Y45000D03*
Y55000D03*
X132500Y100000D03*
X122500Y110000D03*
X132500Y120000D03*
X137500Y157500D03*
Y187500D03*
X127500D03*
X157500Y157500D03*
X147500D03*
X157500Y187500D03*
X147500D03*
X222500Y60000D03*
Y70000D03*
Y80000D03*
X220000Y187500D03*
X252500Y60000D03*
Y70000D03*
Y80000D03*
Y90000D03*
X250000Y157500D03*
X240000D03*
X230000D03*
X250000Y187500D03*
X240000D03*
X230000D03*
X312500Y122500D03*
X302500Y112500D03*
X292500Y122500D03*
Y196500D03*
X374016Y128110D03*
Y118110D03*
G54D12*
X42500Y157500D03*
X62500Y67500D03*
X127500Y157500D03*
X222500Y90000D03*
X220000Y157500D03*
X292500D03*
G54D13*
X62500Y112500D03*
X72500Y215000D03*
X52500Y235000D03*
X102500Y112500D03*
X107500Y137500D03*
X92500Y235000D03*
X112500Y215000D03*
X160000Y97500D03*
X147500Y137500D03*
X160000Y122500D03*
Y215000D03*
X200000Y97500D03*
Y122500D03*
Y215000D03*
X232500Y122500D03*
X272500D03*
X337500Y157500D03*
Y197500D03*
G54D14*
X130000Y75000D03*
X135000Y80000D03*
X125000D03*
G54D15*
G01X42500Y157500D02*
Y135000D01*
X37500Y130000D01*
X15000D01*
X10000Y125000D01*
Y91827D01*
X13717Y88110D01*
X19685D01*
G01Y98110D02*
X25295Y92500D01*
X57500D01*
X62500Y97500D01*
G01Y67500D02*
Y50004D01*
X67504Y45000D01*
X102500D01*
G01X62500Y112500D02*
Y97500D01*
G01X52500Y187500D02*
Y210000D01*
G01Y235000D02*
Y210000D01*
G01X132500Y100000D02*
X126437D01*
X122500Y103937D01*
Y110000D01*
G01X230000Y187500D02*
Y177500D01*
X225000Y172500D01*
X215969D01*
X210969Y167500D01*
Y63937D01*
X214906Y60000D01*
X222500D01*
G01Y70000D02*
X237500D01*
X242500Y75000D01*
Y135000D01*
X230000Y147500D01*
Y157500D01*
G01X252500Y80000D02*
X258563D01*
X262500Y83937D01*
Y153559D01*
X258559Y157500D01*
X250000D01*
G54D16*
G01X19685Y167165D02*
X39661D01*
X42500Y170004D01*
Y187500D01*
G01X62500Y210000D02*
Y187500D01*
G01X72500Y215000D02*
Y187500D01*
G01X102500Y55000D02*
Y92500D01*
X97500Y97500D01*
X92500D01*
G01X102500Y112500D02*
X107500Y107500D01*
Y82500D01*
X110000Y80000D01*
X125000D01*
G01X107500Y137500D02*
Y117500D01*
X102500Y112500D01*
G01X92500Y235000D02*
X155000D01*
X160000Y230000D01*
Y215000D01*
G01X135000Y80000D02*
Y50000D01*
X130000Y45000D01*
G01X132500Y120000D02*
Y112504D01*
X137500Y107504D01*
Y95000D01*
X130000Y87500D01*
Y75000D01*
G01X137500Y147500D02*
X114996D01*
X112500Y149996D01*
Y215000D01*
G01X147500Y157500D02*
Y162500D01*
X145000Y165000D01*
X120000D01*
X117500Y167500D01*
Y202504D01*
X129996Y215000D01*
X160000D01*
G01X137500Y147500D02*
X157500D01*
X160000Y145000D01*
Y122500D01*
G01X137500Y157500D02*
Y147500D01*
G01X200000Y215000D02*
Y202500D01*
X197500Y200000D01*
X152500D01*
X147500Y195000D01*
Y187500D01*
G01X232500Y122500D02*
Y82504D01*
X229996Y80000D01*
X222500D01*
G01X240000Y157500D02*
Y165000D01*
X242500Y167500D01*
X255004D01*
X257500Y169996D01*
Y200000D01*
X242500Y215000D01*
X200000D01*
G01X337500Y157500D02*
Y122496D01*
X341886Y118110D01*
X374016D01*
M02*
